<svg xmlns="http://www.w3.org/2000/svg" width="432" height="226" viewBox="0 0 432 226"><path d="M343.395 37.224c5.653-.94 11.306-1.88 17.073-1.844.473 0 .946-.01 1.42-.019 1.051-.02 2.102-.04 3.145.04 3.193.25 4.517 2.773 2.821 5.428-.807 1.259-1.814 2.406-2.81 3.538-5.814 6.628-12.345 12.545-18.95 18.382-10.143 8.96-20.188 18.016-29.286 28.033a3.28 3.28 0 0 1-.274.262c-.183.161-.363.32-.437.52-.344.936.257 1.844 1.33 1.242.493-.278.904-.713 1.308-1.141.09-.095.179-.19.269-.282 7.62-7.8 15.713-15.107 23.806-22.415l.039-.035.011-.01c1.204-1.087 2.408-2.174 3.611-3.263 5.997-5.434 11.833-11.053 17.604-16.72 2.142-2.109 4.118-4.451 5.793-6.937 2.686-3.989.355-8.509-4.485-8.795-3.122-.186-6.304-.255-9.389.154-3.889.513-7.761 1.149-11.632 1.785h-.002c-3.1.51-6.199 1.019-9.308 1.465-3.084.44-6.223.627-9.34.712-1.809.048-2.493-.712-2.38-2.46.081-1.29.329-2.676.926-3.802a39.731 39.731 0 0 1 3.763-5.774c5.201-6.618 11.543-12.067 18.396-16.943 1.196-.852 2.431-1.651 3.666-2.45 1.161-.752 2.322-1.503 3.451-2.298.915-.648 1.712-1.509 2.417-2.385.694-.87-.52-1.6-1.335-.983-.476.364-.933.753-1.389 1.141-.617.525-1.233 1.049-1.895 1.51-1.011.705-2.047 1.376-3.082 2.046-1.21.783-2.419 1.566-3.588 2.405-7.575 5.428-14.584 11.456-19.962 19.094-1.308 1.859-2.417 3.957-3.107 6.108-1.432 4.462.42 6.83 5.099 6.968.147.004.295.01.443.017.481.02.966.042 1.436-.027 3.983-.574 7.962-1.148 11.929-1.79.965-.156 1.929-.316 2.893-.476h.002ZM242.532 17.488c-.169.622-.318 1.188-.455 1.713-.325 1.24-.59 2.251-.93 3.237-.169.481-.754 1.196-1.101 1.17-.838-.059-.695-.821-.511-1.44l.322-1.112c.381-1.315.762-2.633 1.169-3.939a3.44 3.44 0 0 1 .621-1.154c1.138-1.397 2.26-1.28 2.944.392.427 1.043.674 2.181.869 3.298 1.586 9.105 3.124 18.226 3.398 27.48.174 5.88.149 11.767.125 17.653v.005c-.006 1.42-.012 2.839-.015 4.258-.005 3.165-.1 6.342-.289 9.502-.259 4.214-.627 8.417-1.012 12.62a8.316 8.316 0 0 1-.674 2.536c-.853 1.922-2.349 2.478-4.314 1.668-1.696-.7-2.918-1.99-3.787-3.537l-.302-.539c-1.534-2.733-3.074-5.476-4.359-8.322a5072.766 5072.766 0 0 1-17.96-40.227c-.815-1.848-1.505-3.751-2.195-5.656l-.001-.002c-.389-1.075-.779-2.15-1.191-3.215-.464-1.19-1.158-1.064-1.659.07-1.206 2.768-1.949 5.685-1.954 8.697-.011 15.325.021 30.645.121 45.97.009 1.53.177 3.059.345 4.587.12 1.1.241 2.2.303 3.301.068 1.199-.066 2.415-.199 3.62l-.033.297c-.122 1.153-1.224.31-1.538-.148-.097-.136-.091-.347-.086-.554v-.002a3.94 3.94 0 0 0 .002-.217 766.283 766.283 0 0 0-.39-6.429c-.311-4.884-.622-9.766-.706-14.656-.125-7.652-.093-15.31-.061-22.968v-.003c.014-3.264.028-6.528.03-9.791 0-4.177.558-8.253 2.159-12.134.363-.884.827-1.768 1.438-2.493.795-.942 1.954-.932 2.702.064.727.968 1.338 2.07 1.78 3.197 4.349 11.181 9.364 22.064 14.38 32.946 2.419 5.25 4.839 10.5 7.183 15.783 1.138 2.562 2.55 5.018 3.972 7.443.563.958 1.401 1.815 2.28 2.504 1.022.799 1.823.502 2.091-.832.416-2.059.796-4.166.838-6.262.054-2.67.114-5.341.174-8.012.233-10.447.467-20.893.4-31.336-.058-9.248-1.638-18.39-3.245-27.496-.035-.201-.127-.393-.283-.722l-.002-.003a24.878 24.878 0 0 1-.373-.815l-.021.005ZM136.34 181.225c11.415-.772 22.704-2.561 33.992-4.371 4.237-.679 8.47-1.38 12.703-2.081 7.821-1.295 15.641-2.59 23.483-3.744 10.179-1.496 20.405-2.704 30.716-2.715 1.295 0 2.653.16 3.874.57 1.538.516 1.812 1.634.755 2.896-.66.783-1.574 1.411-2.489 1.901a792.27 792.27 0 0 1-9.789 5.137l-2.144 1.113-.735.383-.002.001c-1.862.97-3.725 1.94-5.621 2.848-1.332.633-2.098-.71-.75-1.486 2.655-1.512 5.317-3.015 7.979-4.518h.001l.007-.004.042-.024.011-.006c1.461-.825 2.921-1.649 4.379-2.475 8.882-5.021.99-4.042-5.374-3.252-.815.101-1.605.199-2.331.281a850.927 850.927 0 0 0-27.46 3.53c-4.801.696-9.585 1.508-14.369 2.319l-.004.001c-3.188.54-6.375 1.081-9.568 1.588l-3.385.537c-11.461 1.825-22.929 3.651-34.534 4.281-3.031.166-6.088-.017-9.133-.2a315.45 315.45 0 0 0-1.664-.098c-1.491-.086-3.187-.394-3.647-2.103-.449-1.667.809-2.806 1.982-3.764 4.529-3.695 9.502-6.703 14.644-9.429 14.64-7.757 30.214-12.953 46.164-17.159 18.629-4.914 37.47-8.854 56.327-12.74a2611.025 2611.025 0 0 1 18.824-3.788l.006-.001c7.084-1.407 14.169-2.815 21.24-4.288 2.369-.493 4.683-1.272 6.994-2.05.858-.289 1.716-.577 2.577-.851 1.024-.319.979-1.346-.09-1.534a96.098 96.098 0 0 1-2.15-.387h-.001c-1.97-.37-3.945-.741-5.925-.768l-2.916-.043c-8.004-.121-16.017-.243-24 .123-9.037.415-18.053 1.384-27.053 2.364a628.792 628.792 0 0 0-26.414 3.412c-14.951 2.268-29.791 5.186-44.53 8.599-12.168 2.819-24.072 6.539-35.982 10.261l-.023.007c-1.599.5-3.199 1-4.8 1.497-2.516.783-5.047 1.544-7.616 2.146-1.728.405-3.53.431-5.078-.681-.942-.674-.322-2.049.75-1.518 2.024.996 3.99.421 5.908-.181a1444.399 1444.399 0 0 0 20.855-6.692c15.564-5.138 31.45-9.003 47.537-11.984 11.495-2.13 23.032-4.062 34.595-5.729 6.106-.881 12.251-1.491 18.394-2.102 2.694-.268 5.388-.535 8.078-.826 12.356-1.331 24.755-1.576 37.158-1.358 3.858.07 7.716.501 11.553.964 1.443.176 2.891.772 4.202 1.448 1.834.953 2.024 2.801.407 4.046-1.094.842-2.389 1.571-3.71 1.944l-.356.1c-4.617 1.303-9.241 2.608-13.929 3.594a5296.44 5296.44 0 0 1-26.16 5.409c-13.667 2.803-27.334 5.605-40.964 8.572-16.066 3.493-32.032 7.491-47.49 13.235-11.156 4.148-21.985 9.03-31.91 15.733-7.81 5.281.205 4.684 6.322 4.228h.003c.566-.042 1.115-.083 1.634-.118Z"/><path fill-rule="evenodd" d="M142.172 78.624c-.35.12-.701.24-1.054.354h-.011c9.395-6.036 19.286-10.53 29.841-13.481 1.97-.551 1.985-.52 2.746 1.1l.086.183.075.158 3.868 8.147.012.025c3.189 6.717 6.377 13.433 9.571 20.147.185.389.364.782.543 1.175.522 1.143 1.045 2.288 1.704 3.34.568.911 1.343 1.694 2.111 2.47l.003.003.471.479c.464.475 1.102.661 1.609.037.506-.624.184-1.19-.359-1.585-1.592-1.153-2.395-2.852-3.197-4.55l-.089-.19a13733.53 13733.53 0 0 1-14.143-30.043c-.285-.608-.606-1.36-.49-1.964.163-.864.084-1.254-.76-1.628-.475-.213-.828-.854-1.097-1.377-.353-.689-.676-1.392-1-2.096l-.001-.001v-.001c-.305-.663-.61-1.327-.94-1.98-.653-1.291-1.299-2.588-1.946-3.884h-.001l-.008-.018h-.001c-1.879-3.768-3.759-7.537-5.793-11.218-1.878-3.4-4.067-6.66-7.148-9.137-1.915-1.542-3.371-1.435-5.127.251-.325.309-.609.663-.894 1.017-.104.13-.208.26-.314.387-4.057 4.873-6.404 10.594-7.744 16.716-2.236 10.2-4.341 20.425-6.388 30.662a343.414 343.414 0 0 0-2.964 17.026c-.385 2.61-.385 5.3-.29 7.947.068 1.798 1.271 2.354 2.727 1.537.68-.379.865-1.212.132-1.398-1.177-.297-1.161-1.027-1.143-1.824l.003-.194c.004-.306.002-.612-.001-.919-.008-.855-.016-1.71.128-2.539.473-2.736.969-5.468 1.466-8.2.645-3.546 1.291-7.094 1.883-10.651.259-1.543 1.003-1.975 2.385-2.21 1.63-.278 3.217-.827 4.779-1.388 1.153-.412.564-1.796-.607-1.5-.891.221-1.762.518-2.633.815Zm-.576-2.975-.003.002-.004.003c-.625.347-1.27.705-1.948 1.078.302-1.496.594-2.958.881-4.398.566-2.834 1.114-5.581 1.688-8.321.241-1.15.478-2.303.715-3.455.779-3.786 1.558-7.576 2.492-11.324 1.213-4.851 3.329-9.324 6.473-13.241 2.03-2.536 3.049-2.642 5.169-.086 1.857 2.226 3.677 4.564 5.032 7.115 2.564 4.819 4.958 9.732 7.352 14.643a1381.69 1381.69 0 0 0 1.88 3.85c.823 1.665.77 1.735-1.003 2.194-8.788 2.284-17.112 5.742-25.135 9.98a185.62 185.62 0 0 0-3.589 1.96Z" clip-rule="evenodd"/><path d="M336.903 192.796v-.041c.008-1.757.015-3.535-.027-5.31-.011-.454-.164-.905-.317-1.356v-.001c-.065-.19-.129-.38-.183-.57a7.07 7.07 0 0 0-.193-.557c-.142-.374-.284-.747-.28-1.122.01-1.139.106-2.293.324-3.411.181-.943.224-1.361-.957-.932-1.989.726-4.021 1.356-6.053 1.96a29.09 29.09 0 0 1-12.074.974l-.052-.007-.101-.012-.077-.008-.087-.009-.052-.005h-.002c-.229-.023-.458-.045-.683-.097-2.797-.635-3.968-3.029-2.361-5.375.758-1.112 1.826-2.022 2.884-2.924.294-.25.586-.499.871-.751.705-.617 1.657.428 1.058 1.149-.253.306-.569.561-.885.816-.236.19-.473.38-.684.592l-.257.254c-.544.536-1.097 1.08-1.487 1.711-.841 1.361-.394 2.421 1.133 2.786.553.134 1.13.16 1.707.186l.414.02.178.011.073.005c5.425.408 10.569-.847 15.505-2.897 5.265-2.185 10.497-4.45 15.728-6.714l.004-.002c2.308-1 4.617-1.999 6.927-2.991 6.75-2.897 13.537-5.688 20.872-6.789a34.354 34.354 0 0 1 5.803-.371c1.676.037 2.681 1.16 2.373 2.78-.288 1.51-.825 3.12-1.729 4.332-2.468 3.321-5 6.636-7.84 9.639-8.798 9.294-17.713 18.483-26.67 27.629l-.773.788-.764.779c-5.301 5.403-10.596 10.8-15.325 16.725-.478.601-1.032 1.141-1.583 1.677l-.001.001-.24.234c-1.072 1.043-2.284-.116-1.362-1.202.785-.935 1.563-1.877 2.341-2.818l.002-.003.005-.006c2.368-2.866 4.738-5.735 7.306-8.411 5.182-5.4 10.428-10.742 15.673-16.083l.002-.003a2496.942 2496.942 0 0 0 13.952-14.285c4.603-4.732 9.214-9.471 13.069-14.862.708-.99 1.357-2.076 1.788-3.209.574-1.494.202-2.034-1.373-1.923-2.111.149-4.218.456-6.297.837-6.426 1.18-12.388 3.736-18.345 6.29l-.176.076a1273.687 1273.687 0 0 0-7.492 3.256l-.003.002a879.057 879.057 0 0 1-10.75 4.643c-1.133.477-1.611.853-.931 2.05.214.378.216.899.217 1.38l.001.172c.128 9.072.224 18.138-.888 27.168a5.785 5.785 0 0 0-.03.567v.002c-.018.754-.037 1.594-.943 1.565-1.167-.039-1.039-1.037-.934-1.851.022-.174.043-.339.051-.485.162-2.988.392-5.977.621-8.963l.001-.002c.079-1.03.158-2.059.234-3.088.037-.524.091-1.054.144-1.636l-.006.015c0-.659.003-1.323.006-1.989ZM272.773 57.216v.006l.001.003c.183 1.685.344 3.164.412 4.646.162 3.567.271 7.134.38 10.701.04 1.315.08 2.63.123 3.944.017.528.029 1.055.041 1.583.023.98.045 1.96.097 2.94l.003.064.005.093c.036.609.075 1.265-.681 1.26-.386 0-1.001-.69-1.101-1.16-.265-1.198-.387-2.449-.413-3.684-.035-1.624-.042-3.25-.049-4.875-.011-2.554-.022-5.107-.142-7.653-.113-2.368-.375-4.728-.652-7.218-.127-1.136-.256-2.299-.375-3.502-.305.442-.584.857-.849 1.25l-.001.003-.002.002c-.643.956-1.198 1.782-1.828 2.547-.917 1.12-2.139.603-1.79-.856.266-1.088.435-1.958-.03-3.109-.111-.274-.202-.565-.099-.842.092-.247.237-.526.389-.631l.218-.154c.651-.462 1.357-.963 2.08-1.05 1.372-.17 1.244-.812 1.022-1.817a5351.063 5351.063 0 0 1-5.18-23.924l-.004-.019c-.429-1.994-.826-4-1.181-6.01-.138-.78-.207-1.599-.143-2.385.097-1.135 1.091-.7 1.525-.197.072.084.09.217.108.35.007.054.014.107.024.158 2.076 9.447 4.152 18.895 6.217 28.343.067.298.114.602.162.905.062.398.125.798.23 1.186.032.112.636.24.715.144.291-.357.546-.744.802-1.132l.001-.002c.135-.204.269-.408.41-.609 1.588-2.286 3.161-4.583 4.733-6.88l.001-.003.005-.007c5.333-7.793 10.665-15.586 16.639-22.913.137-.168.264-.387.394-.611.397-.685.826-1.425 1.687-.95 1.055.584.568 1.34.115 2.044-.152.236-.3.466-.385.683-.314.797-.764 1.54-1.213 2.28v.002c-.15.247-.3.495-.445.744-.044.075-.088.157-.134.242l-.001.002c-.188.347-.398.735-.649.782-1.765.321-2.562 1.636-3.343 2.926-.208.343-.415.684-.639 1.004-4.198 5.982-8.348 11.995-12.499 18.01l-4.012 5.81c-.07.1-.142.2-.214.3-.293.407-.588.818-.771 1.272-.111.278.01.861.233 1.027 4.782 3.606 8.428 8.249 12.075 12.892 1.219 1.552 2.438 3.105 3.7 4.619 2.833 3.4 5.698 6.785 8.764 9.966 3.072 3.187 6.413 6.106 10.787 7.464.403.123.975.68.953 1-.053.818-.815.877-1.419.695-1.091-.331-2.187-.69-3.204-1.203-3.505-1.775-6.55-4.245-9.134-7.165-2.997-3.382-5.903-6.848-8.808-10.313l-.002-.002-.002-.002-.002-.003a957.44 957.44 0 0 0-4.6-5.458 524.933 524.933 0 0 0-6.974-8.01c-.365-.412-.784-.78-1.318-1.248a52.665 52.665 0 0 1-1.033-.922l-.006.005c.091.932.185 1.793.274 2.606l.002.016ZM81.225 86.325l-.001-.033-.17-6.235v-.011l-.001-.01c-.478-2.89-.48-2.902 2.243-4.066.922-.395 1.853-.767 2.784-1.138.733-.293 1.466-.586 2.195-.89 4.9-2.048 9.999-3.479 15.098-4.91a335.486 335.486 0 0 0 5.908-1.697c1.223-.369 1.358.14 1.438 1.097.158 1.813.314 3.625.47 5.437.568 6.608 1.135 13.213 1.799 19.813.356 3.53.938 7.051 1.649 10.528.203.985.816 1.901 1.415 2.795.149.223.298.445.439.666.603.93 1.97-.33 1.352-1.075-1.514-1.841-1.743-4.045-1.968-6.218a77.03 77.03 0 0 0-.122-1.111 469.537 469.537 0 0 1-1.746-16.717c-.652-7.525-1.251-15.052-1.851-22.58-.269-3.374-.538-6.748-.811-10.122l-.199-2.477v-.009c-.252-3.162-.504-6.323-.82-9.481a5.567 5.567 0 0 0-.873-2.46c-.539-.814-1.299-.268-1.87.144-.663.476-.684 1.155.065 1.466 1.015.42 1.002 1.172.989 1.92-.003.193-.007.386.008.572.312 4.173.598 8.34.884 12.513l.051.757.063.923.003.04v.002c.21 3.067.421 6.133.588 9.202.124 2.214.087 2.236-2.128 2.953-1.191.385-2.393.76-3.616 1.037-7.803 1.776-15.358 4.27-22.638 7.58-1.46.664-1.487.632-1.757-1.005-.407-2.466-.808-4.934-1.208-7.402-.796-4.904-1.592-9.81-2.445-14.702-.752-4.308-1.638-8.593-2.524-12.876l-.257-1.242c-.251-1.216-1.712-1.172-1.66.113l.001.02c.06 1.582.12 3.196.463 4.735 2.355 10.507 4.483 21.05 5.545 31.782.194 1.995.167 2-1.967 1.706a1.483 1.483 0 0 1-.174-.042c-.129-.037-.259-.075-.343-.027-.286.16-.593.358-.75.62-.091.16 0 .573.157.707l.007.005c.322.283.755.663 1.12.642 2.413-.134 2.666 1.418 2.715 3.22.011.453.06.903.108 1.354.047.434.094.87.108 1.305.122 3.947.24 7.894.356 11.842l.236 7.898c.006.165.006.333.005.501 0 .462-.002.926.125 1.35.222.722 1.467 1.014 1.622.075.167-1.054.312-2.124.29-3.183-.115-5.202-.257-10.4-.4-15.6ZM389.832 56.848c-.867-1.099-1.568-2.38-2.098-3.682-4.507-11.049-8.719-22.205-12.342-33.582a95.746 95.746 0 0 0-.583-1.773c-.675-2.031-1.633-3.751-4.031-4.153-1.234-.197-.903-1.734.311-1.602 2.05.23 3.784 1.093 4.645 3.097.809 1.875 1.526 3.799 2.238 5.717 1.433 3.865 2.862 7.732 4.291 11.599l.007.02.01.025.012.032.001.005.004.01c2.232 6.039 4.463 12.078 6.71 18.108.525 1.41 1.151 2.814 1.916 4.105.771 1.302 1.499 1.345 2.569.327.643-.611 1.205-1.313 1.745-2.02 2.218-2.885 4.429-5.776 6.64-8.667 4.334-5.669 8.67-11.339 13.061-16.963 2.656-3.4 5.39-6.74 8.124-10.08l.003-.004c1.497-1.828 2.993-3.656 4.477-5.494.669-.83 1.263-1.725 1.841-2.62.472-.724-.042-1.267-.824-.949-1.397.58-2.788 1.174-4.132 1.86-2.539 1.292-5.071 2.597-7.604 3.902h-.002l-.001.002c-4.586 2.363-9.172 4.726-13.796 7.011-4.565 2.256-9.419 3.842-14.466 4.512-1.806.24-3.662.116-5.512-.006a83.185 83.185 0 0 0-1.895-.112c-.621-.026-1.344-.375-1.001-1.179.134-.316.888-.621 1.284-.54 5.859 1.18 11.22-.732 16.55-2.634l.341-.121c6.522-2.322 12.583-5.64 18.637-8.952l.112-.061c3.12-1.71 6.277-3.355 9.451-4.968.862-.439 1.815-.777 2.767-.948 2.216-.397 3.286.932 2.393 2.974-.423.964-1.023 1.886-1.681 2.717a448.738 448.738 0 0 1-3.697 4.571l-.001.001c-1.972 2.416-3.943 4.83-5.829 7.308-2.804 3.682-5.564 7.399-8.324 11.115l-.005.007c-2.495 3.36-4.99 6.72-7.518 10.055-2.623 3.458-5.359 6.826-8.095 10.195l-.72.886c-1.438 1.77-4.234 3.19-5.983.949ZM32.653 42.734c-1.142.628-2.267 1.252-3.382 1.869-2.746 1.521-5.427 3.006-8.132 4.445-5.538 2.953-11.102 5.857-16.661 8.759l-.688.359c-.779.41-1.585.81-2.427 1.033-1.09.295-1.948-.918-.859-1.582.364-.225.69-.514 1.018-.803.757-.67 1.519-1.342 2.767-1.238.477.041.99-.3 1.495-.638.207-.138.413-.275.614-.385a3084.76 3084.76 0 0 1 7.078-3.857h.001c6.095-3.314 12.188-6.628 18.221-10.046 2.522-1.429 5.099-2.75 7.675-4.07 2.65-1.357 5.3-2.714 7.888-4.19a786.879 786.879 0 0 1 15.515-8.616c1.665-.9 3.39-1.69 5.115-2.477.604-.276 1.207-.552 1.807-.832.477-.224.997-.427 1.506-.464.244-.021.593.314.758.575.095.15 0 .544-.149.698-.201.222-.485.372-.76.518l-.046.024-.063.034c-2.618 1.423-5.236 2.845-7.855 4.266-4.205 2.283-8.41 4.566-12.61 6.855-1.506.819-3.007 1.647-4.507 2.476-3.138 1.731-6.275 3.463-9.456 5.107-1.415.73-1.913 1.679-1.881 3.133.053 2.363.101 4.725.15 7.088l.072 3.543c.07 3.093.142 6.187.215 9.28v.004c.173 7.363.346 14.726.47 22.087.11 6.677.694 13.258 2.702 19.668.284.91.338 1.905.39 2.878l.013.245c.041.744-1.063.577-1.357.197-.11-.142-.163-.331-.216-.52a4.277 4.277 0 0 0-.065-.215c-2.11-6.523-3.509-13.173-3.583-20.058 0-.152-.007-.304-.014-.457-.005-.114-.01-.228-.012-.342l-.001-.06c-.212-13.984-.424-27.968-.64-41.952-.008-.5-.035-1.001-.068-1.603l-.038-.736Z"/><path fill-rule="evenodd" d="M378.401 89c-.059-.004-.151-.005-.269-.007-.404-.006-1.109-.018-1.798-.14-3.219-.572-4.348-3.228-2.313-5.749.675-.835 1.596-1.48 2.513-2.12.349-.245.698-.49 1.033-.743.216-.163.483-.267.75-.37.618-.24 1.236-.48 1.225-1.448 0-.197.518-.496.84-.583 2.913-.806 5.843-1.263 8.816-.288 2.728.898 3.573 3.043 2.051 5.514-.556.904-1.331 1.72-2.155 2.406-2.514 2.112-6.663 3.516-10.693 3.528Zm.802-2.118c3.028.12 5.701-.942 8.129-2.591.865-.587 1.559-1.461 2.226-2.302l.169-.213c.507-.632.518-1.573-.256-1.867l-.014-.006c-1.208-.456-2.637-.995-3.805-.74-2.166.474-4.288 1.355-6.285 2.346-1.408.702-2.744 1.726-3.819 2.875-.976 1.05-.496 2.014.949 2.297.618.122 1.258.143 1.896.163.269.008.538.017.805.033l.005.005Z" clip-rule="evenodd"/><path d="M310.914 210.896c.205.119.517.082.517.082h.005c.151 0 .272.007.372.014.165.01.273.017.365-.02l.471-.19c4.339-1.752 8.683-3.506 13.007-5.305.81-.35.045-1.62-.62-1.464-1.07.243-2.12.611-3.154.994a64.47 64.47 0 0 0-2.057.809c-1.903.773-3.807 1.545-5.88 1.812-1.147.146-2.279.675-3.344 1.188-1.175.573-.365 1.678.318 2.08Z"/></svg>